:SAMPLES-PER-SECOND 30
:FRAME-RANGE 1-663
:FULLY-SPECIFIED
:DEGREES
456
root  28.9618 39.1981 -39.2754 174.529 18.9534 176.658
RightUpLeg  17.4032 -7.82764 -3.37426
RightLeg  7.31052 -4.44252 0.771558
RightFoot  -19.9415 0.233006 4.89449
RightToes  2.91037e-010 0 -3.6325e-017
Spine  4.90622 3.23864 3.44949
Spine1  -1.23075 4.68586 -7.07262
HEad  13.4349 11.4863 -1.93032
LeftShoulder1  1.09641 0.581282 -31.451
LeftArm  25.3298 26.5037 -26.1254
LeftForeArm  -6.22633 -9.81986 -16.5334
LeftHand  0.148009 2.35468 -6.30455
RightShoulder  9.96461 13.9983 49.8469
RightArm  17.9821 6.15061 16.8221
RightForeArm  10.488 9.36566 14.6152
RightHand  0.122967 4.12819 1.22504
LeftUpLeg  -12.3743 3.68641 -1.73699
LeftLeg  -5.74377 22.2595 -6.13698
LeftFoot  6.39465 1.28695 -8.48775
LeftToes  -4.9116e-011 5.71383e-011 -3.31847e-011
457
root  29.2418 39.006 -40.5835 173.635 18.0468 175.952
RightUpLeg  20.2366 -8.39788 -5.04695
RightLeg  7.98441 -3.73544 0.703345
RightFoot  -20.8962 0.421493 6.73355
RightToes  2.91037e-010 0 -3.6325e-017
Spine  5.22072 3.10494 1.94557
Spine1  -1.41928 4.6191 -7.45324
HEad  13.8411 12.3756 -0.934753
LeftShoulder1  1.03697 0.731101 -31.3312
LeftArm  25.8456 26.5347 -25.6061
LeftForeArm  -5.43755 -9.75494 -16.562
LeftHand  0.194645 1.69694 -6.52239
RightShoulder  9.61998 13.1614 50.5407
RightArm  17.801 4.55425 16.3973
RightForeArm  10.6493 9.04238 14.7643
RightHand  0.107204 4.00591 1.0547
LeftUpLeg  -11.5184 2.52427 -3.8548
LeftLeg  -3.29754 19.2946 -5.04131
LeftFoot  9.58014 0.55615 -3.32927
LeftToes  -4.9116e-011 5.71383e-011 -3.31847e-011
458
root  29.4949 38.8965 -41.9083 173.14 17.1067 175.163
RightUpLeg  22.322 -8.91981 -6.72776
RightLeg  9.19337 -3.12523 0.326743
RightFoot  -20.9876 0.672767 9.64386
RightToes  2.91037e-010 0 -3.6325e-017
Spine  4.87119 2.87523 -0.238837
Spine1  -1.29395 4.25792 -7.10675
HEad  14.4281 13.4795 0.0521772
LeftShoulder1  0.979343 0.921315 -31.8532
LeftArm  25.141 25.8675 -24.8047
LeftForeArm  -5.11459 -9.11377 -16.892
LeftHand  0.179898 1.90681 -6.46657
RightShoulder  9.41656 12.5521 51.3414
RightArm  17.2127 2.96432 15.7122
RightForeArm  11.2617 7.82824 15.3539
RightHand  0.112413 3.72854 1.17255
LeftUpLeg  -12.4476 0.84796 -5.97294
LeftLeg  2.19125 18.9725 -2.27642
LeftFoot  11.7323 -0.862666 3.87234
LeftToes  -4.9116e-011 5.71383e-011 -3.31847e-011
459
root  29.8515 38.844 -43.143 173.77 16.4239 175.073
RightUpLeg  21.5478 -8.24819 -6.28629
RightLeg  13.363 -3.32834 -0.934592
RightFoot  -20.1043 0.931697 13.886
RightToes  2.91037e-010 0 -3.6325e-017
Spine  3.50894 2.84219 -2.4387
Spine1  -1.02284 3.92499 -5.90479
HEad  15.1441 14.4703 0.980132
LeftShoulder1  0.954067 1.04006 -32.6521
LeftArm  25.1706 24.0777 -24.2074
LeftForeArm  -6.03394 -8.65049 -17.217
LeftHand  0.173339 1.9654 -6.36545
RightShoulder  8.94347 11.585 51.8807
RightArm  12.642 1.94682 15.4622
RightForeArm  15.9958 3.67351 16.4836
RightHand  0.151327 4.55198 1.47633
LeftUpLeg  -14.7474 3.88142 -7.14727
LeftLeg  9.81983 14.5491 0.264808
LeftFoot  7.56159 -0.615955 3.42225
LeftToes  -4.9116e-011 5.71383e-011 -3.31847e-011
460
root  30.0077 38.8877 -44.354 174.77 15.9534 175.079
RightUpLeg  18.0929 -7.24047 -6.54684
RightLeg  21.3568 -2.22437 -1.17239
RightFoot  -17.3228 0.915648 19.6142
RightToes  2.91037e-010 0 -3.6325e-017
Spine  1.45903 2.74238 -1.8747
Spine1  0.267611 4.07233 -7.88566
HEad  15.9286 15.0731 1.48903
LeftShoulder1  1.01484 0.890632 -32.7654
LeftArm  22.3629 21.4587 -24.7326
LeftForeArm  -4.25814 -6.7902 -17.8927
LeftHand  0.13625 2.30409 -5.73454
RightShoulder  8.35101 10.7205 51.4036
RightArm  8.39097 0.223151 16.3594
RightForeArm  19.1151 -0.757754 16.9568
RightHand  0.179904 4.31737 1.86895
LeftUpLeg  -15.3716 5.55217 -7.82733
LeftLeg  13.0582 12.1588 0.753143
LeftFoot  4.27841 -0.413935 2.82818
LeftToes  -4.9116e-011 5.71383e-011 -3.31847e-011
461
root  30.1532 38.9497 -45.3833 175.161 16.851 174.906
RightUpLeg  12.2954 -4.82914 -7.12161
RightLeg  32.7599 -0.448394 -0.551326
RightFoot  -10.9566 -0.157866 24.269
RightToes  2.91037e-010 0 -3.6325e-017
Spine  1.07541 3.1185 -1.4964
Spine1  0.863557 4.56768 -9.83997
HEad  15.6979 16.8361 1.01214
LeftShoulder1  1.1119 0.666506 -33.12
LeftArm  20.1111 18.5027 -25.3886
LeftForeArm  -1.53511 -6.02414 -17.9435
LeftHand  0.199775 0.978976 -5.46747
RightShoulder  8.18188 10.5805 50.8739
RightArm  8.42126 -1.62539 17.4067
RightForeArm  18.0368 -3.21762 17.2924
RightHand  0.235994 3.81452 2.71319
LeftUpLeg  -14.8727 5.32929 -7.58104
LeftLeg  14.7214 13.014 0.627452
LeftFoot  1.93041 -0.337197 2.79763
LeftToes  -4.9116e-011 5.71383e-011 -3.31847e-011
462
root  30.2849 39.0387 -46.4029 175.288 17.2847 174.555
RightUpLeg  5.2151 -3.13465 -7.96408
RightLeg  44.9884 -0.348305 -0.67717
RightFoot  -0.882167 -2.00108 21.5586
RightToes  2.91037e-010 0 -3.6325e-017
Spine  1.1958 2.8324 -2.21356
Spine1  1.09249 4.19433 -10.0937
HEad  14.2497 20.459 -0.132857
LeftShoulder1  1.15927 0.574959 -33.5106
LeftArm  19.9093 16.0772 -26.3026
LeftForeArm  -2.54579 -7.57761 -17.2546
LeftHand  0.232256 0.705995 -5.91719
RightShoulder  8.1856 10.7847 50.1769
RightArm  11.8554 -2.82083 18.2834
RightForeArm  16.8207 -3.63917 17.724
RightHand  0.349563 3.95381 4.0719
LeftUpLeg  -13.5912 5.26505 -7.65093
LeftLeg  15.2402 13.5841 0.158747
LeftFoot  -0.0908894 -0.271468 2.76154
LeftToes  -4.9116e-011 5.71383e-011 -3.31847e-011
463
root  30.4595 38.9754 -47.249 175.444 16.9926 174.049
RightUpLeg  -1.76693 -1.80511 -8.68169
RightLeg  55.1956 -1.06994 -2.06304
RightFoot  4.72572 -3.08333 21.8339
RightToes  2.91037e-010 0 -3.6325e-017
Spine  2.04757 2.36597 -4.6011
Spine1  0.972354 3.24226 -9.00126
HEad  12.0873 24.8117 -1.58113
LeftShoulder1  1.18453 0.526208 -33.7098
LeftArm  20.869 13.0899 -27.6068
LeftForeArm  -1.81819 -9.43008 -16.2706
LeftHand  0.414384 -1.51735 -6.84908
RightShoulder  7.94705 10.4074 50.0394
RightArm  16.3366 -3.70333 18.2411
RightForeArm  15.9493 -1.68664 17.9668
RightHand  0.308577 3.16219 3.95466
LeftUpLeg  -13.3511 4.90271 -8.29503
LeftLeg  17.1506 13.5592 0.64482
LeftFoot  -2.40046 -0.165698 2.30476
LeftToes  -4.9116e-011 5.71383e-011 -3.31847e-011
464
root  30.6597 38.9808 -48.1524 175.579 16.4954 174.13
RightUpLeg  -7.88529 -1.05001 -8.62404
RightLeg  62.6951 -1.5754 -3.86336
RightFoot  4.10324 -2.2824 16.9278
RightToes  2.91037e-010 0 -3.6325e-017
Spine  3.12767 1.96372 -6.17047
Spine1  0.396273 2.38269 -7.78369
HEad  10.3163 29.3852 -2.96995
LeftShoulder1  1.16476 0.57264 -33.6652
LeftArm  22.3778 9.99506 -29.0581
LeftForeArm  -2.19152 -11.6101 -14.9615
LeftHand  0.385054 -1.76855 -6.10783
RightShoulder  7.43224 9.48479 50.1259
RightArm  20.8924 -4.57063 17.8022
RightForeArm  15.3338 0.986392 17.8767
RightHand  0.325637 3.61109 3.94409
LeftUpLeg  -12.429 4.55813 -8.4631
LeftLeg  18.326 13.203 1.09893
LeftFoot  -4.45839 -0.091087 1.96167
LeftToes  -4.9116e-011 5.71383e-011 -3.31847e-011
465
root  30.8813 39.0076 -49.0688 175.993 16.0825 174.344
RightUpLeg  -13.9397 0.0587538 -8.36679
RightLeg  66.5631 -1.58414 -4.66877
RightFoot  3.1871 -1.80445 14.2608
RightToes  2.91037e-010 0 -3.6325e-017
Spine  3.60095 1.6966 -7.04152
Spine1  0.0855135 1.94327 -7.23622
HEad  9.2673 33.7824 -3.71086
LeftShoulder1  1.14246 0.572586 -32.9097
LeftArm  23.0474 7.21741 -30.7619
LeftForeArm  -4.02914 -14.477 -12.8294
LeftHand  0.302316 -1.00544 -5.41604
RightShoulder  6.98141 8.70404 50.1008
RightArm  23.0579 -5.53627 17.6032
RightForeArm  14.5509 2.80126 17.5783
RightHand  0.343715 4.21647 3.87201
LeftUpLeg  -11.5192 4.43854 -8.40557
LeftLeg  19.0797 12.7368 1.32392
LeftFoot  -6.52358 -0.0177763 1.35617
LeftToes  -4.9116e-011 5.71383e-011 -3.31847e-011
466
root  31.1111 39.0669 -50.0079 176.264 15.5131 174.702
RightUpLeg  -18.8473 1.27583 -8.01702
RightLeg  66.3183 -1.62097 -4.7007
RightFoot  2.03248 -1.55885 13.3595
RightToes  2.91037e-010 0 -3.6325e-017
Spine  4.22952 1.41163 -7.42162
Spine1  -0.451998 1.6024 -6.79785
HEad  8.69534 37.9639 -4.14996
LeftShoulder1  1.11988 0.581276 -32.255
LeftArm  25.6158 5.06071 -31.9398
LeftForeArm  -6.32548 -18.4738 -9.23069
LeftHand  0.419452 -2.49513 -5.98734
RightShoulder  6.66179 8.23562 49.7198
RightArm  21.6317 -6.43309 17.7525
RightForeArm  14.2041 2.93509 17.411
RightHand  0.326936 4.1104 3.71796
LeftUpLeg  -10.0375 4.69906 -8.07816
LeftLeg  19.2131 11.6979 1.06658
LeftFoot  -8.30045 0.0199945 1.12737
LeftToes  -4.9116e-011 5.71383e-011 -3.31847e-011
467
root  31.3314 39.1801 -50.9503 176.651 14.2848 175.464
RightUpLeg  -22.3834 1.71142 -7.39124
RightLeg  61.7893 -1.98656 -4.53618
RightFoot  0.887772 -1.39217 13.0009
RightToes  2.91037e-010 0 -3.6325e-017
Spine  4.9269 0.930682 -7.14157
Spine1  -1.12396 1.17347 -6.25284
HEad  8.07371 40.6772 -4.63738
LeftShoulder1  1.12268 0.540096 -31.8177
LeftArm  26.3541 3.25895 -32.3567
LeftForeArm  -7.46608 -22.5315 -5.70981
LeftHand  0.410948 -2.98451 -5.47945
RightShoulder  6.41293 7.84949 49.4933
RightArm  21.1643 -7.57675 17.73
RightForeArm  10.6724 4.25996 17.0814
RightHand  0.281872 3.1877 3.57986
LeftUpLeg  -8.19251 5.05966 -7.36521
LeftLeg  18.5479 10.1307 0.535332
LeftFoot  -9.69525 0.043454 1.03116
LeftToes  -4.9116e-011 5.71383e-011 -3.31847e-011
468
root  31.533 39.3159 -51.8941 177.118 12.6477 176.276
RightUpLeg  -24.4056 1.63415 -6.86998
RightLeg  53.4782 -2.94935 -4.64952
RightFoot  -0.0222445 -1.34745 13.537
RightToes  2.91037e-010 0 -3.6325e-017
Spine  5.2787 0.49969 -6.71029
Spine1  -1.42543 0.823788 -5.36114
HEad  7.58402 42.3181 -5.12584
LeftShoulder1  1.13016 0.49385 -31.4839
LeftArm  19.6431 1.54055 -32.4062
LeftForeArm  -1.53053 -25.7451 -5.5996
LeftHand  0.319076 -2.73337 -4.35666
RightShoulder  6.05614 7.27817 49.2201
RightArm  24.0207 -8.87338 17.662
RightForeArm  4.07601 7.76211 16.1169
RightHand  0.376349 3.60072 4.60304
LeftUpLeg  -6.29844 5.26908 -6.57809
LeftLeg  17.5828 8.07914 -0.0627523
LeftFoot  -10.7311 0.0588093 1.06263
LeftToes  -4.9116e-011 5.71383e-011 -3.31847e-011
469
root  31.7152 39.462 -52.8494 177.67 10.897 177.102
RightUpLeg  -24.8137 1.02892 -6.37503
RightLeg  41.7152 -5.3272 -5.34182
RightFoot  0.388351 -1.43196 13.9034
RightToes  2.91037e-010 0 -3.6325e-017
Spine  5.39383 0.321427 -5.57114
Spine1  -1.4953 0.871091 -5.01383
HEad  7.21628 42.7323 -5.37799
LeftShoulder1  1.14978 0.391218 -30.874
LeftArm  13.2225 0.24908 -32.5516
LeftForeArm  3.65784 -29.1847 -6.13661
LeftHand  0.321576 -3.00132 -4.23055
RightShoulder  5.4926 6.26271 49.2875
RightArm  28.0091 -10.1543 17.4864
RightForeArm  -3.84115 12.4457 13.8927
RightHand  0.397101 3.43521 4.97429
LeftUpLeg  -4.31009 5.38689 -5.70815
LeftLeg  16.1717 5.98937 -0.687028
LeftFoot  -11.263 0.0665861 1.58304
LeftToes  -4.9116e-011 5.71383e-011 -3.31847e-011
470
root  31.918 39.5501 -53.83 178.392 9.37152 177.41
RightUpLeg  -23.9036 0.129211 -6.40053
RightLeg  26.9715 -7.72574 -4.46644
RightFoot  1.75399 -1.67509 14.6262
RightToes  2.91037e-010 0 -3.6325e-017
Spine  5.23715 0.235754 -4.67773
Spine1  -1.75422 1.00547 -4.91127
HEad  7.05981 42.9096 -5.60777
LeftShoulder1  1.09587 0.530144 -30.7839
LeftArm  7.2231 0.0285513 -32.0303
LeftForeArm  6.77549 -33.1217 -6.96054
LeftHand  0.304779 -2.72686 -4.15601
RightShoulder  5.04948 5.48845 49.2186
RightArm  32.3537 -11.4555 17.5221
RightForeArm  -12.1646 17.3719 10.3585
RightHand  0.373531 3.2036 4.80861
LeftUpLeg  -2.67306 5.456 -5.20691
LeftLeg  14.834 4.36026 -1.24179
LeftFoot  -11.9653 0.0805023 1.58493
LeftToes  -4.9116e-011 5.71383e-011 -3.31847e-011
